<svg width="31" height="21" viewBox="0 0 31 21" fill="none" xmlns="http://www.w3.org/2000/svg">
<path d="M26.2172 14.6795L23.1403 11.0432C23.053 10.94 23.0046 10.8214 23.0003 10.6997C22.996 10.578 23.0358 10.4577 23.1157 10.3513C23.1956 10.2448 23.3126 10.1561 23.4546 10.0944C23.5965 10.0326 23.7583 10 23.9231 10H30.0769C30.2417 10 30.4035 10.0326 30.5454 10.0944C30.6874 10.1561 30.8044 10.2448 30.8843 10.3513C30.9642 10.4577 31.004 10.578 30.9997 10.6997C30.9954 10.8214 30.947 10.94 30.8597 11.0432L27.7828 14.6795C27.6998 14.7776 27.5844 14.8585 27.4475 14.9145C27.3105 14.9706 27.1566 15 27 15C26.8434 15 26.6895 14.9706 26.5525 14.9145C26.4156 14.8585 26.3002 14.7776 26.2172 14.6795Z" fill="#777777"/>
<path d="M7 19H11C11 20.1 10.1 21 9 21C7.9 21 7 20.1 7 19ZM18 17V18H0V17L2 15V9C2 5.9 4 3.2 7 2.3V2C7 0.9 7.9 0 9 0C10.1 0 11 0.9 11 2V2.3C14 3.2 16 5.9 16 9V15L18 17ZM14 9C14 6.2 11.8 4 9 4C6.2 4 4 6.2 4 9V16H14V9Z" fill="#777777"/>
</svg>
