<svg width="34" height="21" viewBox="0 0 34 21" fill="none" xmlns="http://www.w3.org/2000/svg">
<path d="M29.2172 14.6795L26.1403 11.0432C26.053 10.94 26.0046 10.8214 26.0003 10.6997C25.996 10.578 26.0358 10.4577 26.1157 10.3513C26.1956 10.2448 26.3126 10.1561 26.4546 10.0944C26.5965 10.0326 26.7583 10 26.9231 10H33.0769C33.2417 10 33.4035 10.0326 33.5454 10.0944C33.6874 10.1561 33.8044 10.2448 33.8843 10.3513C33.9642 10.4577 34.004 10.578 33.9997 10.6997C33.9954 10.8214 33.947 10.94 33.8597 11.0432L30.7828 14.6795C30.6998 14.7776 30.5844 14.8585 30.4475 14.9145C30.3105 14.9706 30.1566 15 30 15C29.8434 15 29.6895 14.9706 29.5525 14.9145C29.4156 14.8585 29.3002 14.7776 29.2172 14.6795Z" fill="#777777"/>
<path d="M10.5 0C11.8924 0 13.2277 0.553123 14.2123 1.53769C15.1969 2.52226 15.75 3.85761 15.75 5.25C15.75 6.64239 15.1969 7.97775 14.2123 8.96231C13.2277 9.94688 11.8924 10.5 10.5 10.5C9.10761 10.5 7.77225 9.94688 6.78769 8.96231C5.80312 7.97775 5.25 6.64239 5.25 5.25C5.25 3.85761 5.80312 2.52226 6.78769 1.53769C7.77225 0.553123 9.10761 0 10.5 0ZM10.5 2.625C9.80381 2.625 9.13613 2.90156 8.64385 3.39384C8.15156 3.88613 7.875 4.55381 7.875 5.25C7.875 5.94619 8.15156 6.61387 8.64385 7.10615C9.13613 7.59844 9.80381 7.875 10.5 7.875C11.1962 7.875 11.8639 7.59844 12.3562 7.10615C12.8484 6.61387 13.125 5.94619 13.125 5.25C13.125 4.55381 12.8484 3.88613 12.3562 3.39384C11.8639 2.90156 11.1962 2.625 10.5 2.625ZM10.5 11.8125C14.0044 11.8125 21 13.5581 21 17.0625V21H0V17.0625C0 13.5581 6.99563 11.8125 10.5 11.8125ZM10.5 14.3062C6.60187 14.3062 2.49375 16.2225 2.49375 17.0625V18.5063H18.5063V17.0625C18.5063 16.2225 14.3981 14.3062 10.5 14.3062Z" fill="#777777"/>
</svg>
