<svg width="26" height="11" viewBox="0 0 26 11" fill="none" xmlns="http://www.w3.org/2000/svg">
<path d="M1.352 10L0.134 3.364H2.038L2.682 8.096L5.356 3.364H7.386L3.382 10H1.352ZM8.94864 2.146L9.25664 0.661999H11.3146L11.0066 2.146H8.94864ZM7.43664 10L8.54264 4.764H7.54864L8.01064 3.364H10.7266L9.32664 10H7.43664ZM13.2455 10.14C12.7509 10.14 12.2889 10.1027 11.8595 10.028C11.4302 9.96267 11.0895 9.87867 10.8375 9.776L11.1735 8.208C11.4722 8.33867 11.8175 8.44133 12.2095 8.516C12.6109 8.58133 12.9842 8.614 13.3295 8.614C13.7962 8.614 14.1322 8.586 14.3375 8.53C14.5429 8.474 14.6642 8.348 14.7015 8.152C14.7482 7.928 14.6315 7.76467 14.3515 7.662C14.0809 7.55933 13.6795 7.41467 13.1475 7.228C12.5782 7.02267 12.1582 6.77067 11.8875 6.472C11.6262 6.164 11.5562 5.73933 11.6775 5.198C11.8175 4.56333 12.1395 4.078 12.6435 3.742C13.1475 3.39667 13.9409 3.224 15.0235 3.224C15.4342 3.224 15.8169 3.25667 16.1715 3.322C16.5262 3.378 16.8202 3.448 17.0535 3.532L16.7175 5.086C16.4935 4.96467 16.2229 4.876 15.9055 4.82C15.5975 4.75467 15.3035 4.722 15.0235 4.722C14.6222 4.722 14.2955 4.75 14.0435 4.806C13.8009 4.862 13.6562 4.98333 13.6095 5.17C13.5722 5.37533 13.6702 5.52 13.9035 5.604C14.1369 5.688 14.5102 5.814 15.0235 5.982C15.7609 6.22467 16.2369 6.50933 16.4515 6.836C16.6755 7.16267 16.7315 7.592 16.6195 8.124C16.4795 8.78667 16.1435 9.29067 15.6115 9.636C15.0889 9.972 14.3002 10.14 13.2455 10.14ZM20.0643 10.14C19.495 10.14 19.0003 10.0373 18.5803 9.832C18.1696 9.62667 17.8756 9.29533 17.6983 8.838C17.5303 8.37133 17.5256 7.76 17.6843 7.004C17.8523 6.21067 18.1323 5.534 18.5243 4.974C18.9163 4.414 19.3876 3.98467 19.9383 3.686C20.489 3.378 21.077 3.224 21.7023 3.224C22.0756 3.224 22.3976 3.266 22.6683 3.35C22.939 3.434 23.191 3.58333 23.4243 3.798L23.5083 3.364H25.3983L23.9983 10H22.3743L22.3883 9.384C22.043 9.636 21.6836 9.82733 21.3103 9.958C20.9463 10.0793 20.531 10.14 20.0643 10.14ZM20.8763 8.754C21.4643 8.754 22.0056 8.55333 22.5003 8.152L23.1163 5.198C22.827 4.806 22.421 4.61 21.8983 4.61C20.713 4.61 19.9476 5.408 19.6023 7.004C19.453 7.68533 19.4763 8.14733 19.6723 8.39C19.8776 8.63267 20.279 8.754 20.8763 8.754Z" fill="#987358"/>
</svg>
